<mxfile host="app.diagrams.net" agent="Mozilla/5.0 (Windows NT 10.0; Win64; x64) AppleWebKit/537.36 (KHTML, like Gecko) Chrome/134.0.0.0 Safari/537.36 OPR/119.0.0.0" version="27.1.5">
  <diagram name="Page-1" id="-apDWYVtJTyfop0K8Bh2">
    <mxGraphModel dx="1234" dy="703" grid="1" gridSize="10" guides="1" tooltips="1" connect="1" arrows="1" fold="1" page="1" pageScale="1" pageWidth="827" pageHeight="1169" math="0" shadow="0">
      <root>
        <mxCell id="0" />
        <mxCell id="1" parent="0" />
        <mxCell id="IeZsdIZ805MNUzhO2B3x-29" value="" style="rounded=0;whiteSpace=wrap;html=1;" vertex="1" parent="1">
          <mxGeometry x="50" y="180" width="320" height="340" as="geometry" />
        </mxCell>
        <mxCell id="IeZsdIZ805MNUzhO2B3x-15" style="edgeStyle=orthogonalEdgeStyle;rounded=0;orthogonalLoop=1;jettySize=auto;html=1;" edge="1" parent="1" source="IeZsdIZ805MNUzhO2B3x-1">
          <mxGeometry relative="1" as="geometry">
            <mxPoint x="225.030303030303" y="200" as="targetPoint" />
          </mxGeometry>
        </mxCell>
        <mxCell id="IeZsdIZ805MNUzhO2B3x-1" value="Start" style="rounded=0;whiteSpace=wrap;html=1;flipH=1;" vertex="1" parent="1">
          <mxGeometry x="165" y="110" width="120" height="60" as="geometry" />
        </mxCell>
        <mxCell id="IeZsdIZ805MNUzhO2B3x-2" value="Stop" style="rounded=0;whiteSpace=wrap;html=1;flipH=1;" vertex="1" parent="1">
          <mxGeometry x="564.75" y="740" width="120" height="60" as="geometry" />
        </mxCell>
        <mxCell id="IeZsdIZ805MNUzhO2B3x-16" style="edgeStyle=orthogonalEdgeStyle;rounded=0;orthogonalLoop=1;jettySize=auto;html=1;exitX=0.51;exitY=0.852;exitDx=0;exitDy=0;exitPerimeter=0;" edge="1" parent="1" source="IeZsdIZ805MNUzhO2B3x-39" target="IeZsdIZ805MNUzhO2B3x-5">
          <mxGeometry relative="1" as="geometry">
            <mxPoint x="224.9999999999999" y="276.0000000000001" as="sourcePoint" />
          </mxGeometry>
        </mxCell>
        <mxCell id="IeZsdIZ805MNUzhO2B3x-17" style="edgeStyle=orthogonalEdgeStyle;rounded=0;orthogonalLoop=1;jettySize=auto;html=1;" edge="1" parent="1" source="IeZsdIZ805MNUzhO2B3x-5" target="IeZsdIZ805MNUzhO2B3x-6">
          <mxGeometry relative="1" as="geometry" />
        </mxCell>
        <mxCell id="IeZsdIZ805MNUzhO2B3x-5" value="&lt;div&gt;Vision-to-Text Pipeline&amp;nbsp;&amp;nbsp;&lt;/div&gt;&lt;div&gt;&lt;span style=&quot;background-color: transparent; color: light-dark(rgb(0, 0, 0), rgb(255, 255, 255));&quot;&gt;(OCR using MistralAI)&lt;/span&gt;&lt;/div&gt;" style="rounded=0;whiteSpace=wrap;html=1;flipH=1;" vertex="1" parent="1">
          <mxGeometry x="105.5" y="320" width="239" height="76" as="geometry" />
        </mxCell>
        <mxCell id="IeZsdIZ805MNUzhO2B3x-18" style="edgeStyle=orthogonalEdgeStyle;rounded=0;orthogonalLoop=1;jettySize=auto;html=1;" edge="1" parent="1" source="IeZsdIZ805MNUzhO2B3x-6" target="IeZsdIZ805MNUzhO2B3x-7">
          <mxGeometry relative="1" as="geometry" />
        </mxCell>
        <mxCell id="IeZsdIZ805MNUzhO2B3x-6" value="&lt;div&gt;Text Preprocessing&amp;nbsp;&amp;nbsp;&lt;/div&gt;&lt;div&gt;&amp;nbsp; &amp;nbsp;(Clean noisy OCR, change to .txt file)&lt;/div&gt;" style="rounded=0;whiteSpace=wrap;html=1;flipH=1;" vertex="1" parent="1">
          <mxGeometry x="100.25" y="430" width="249.5" height="76" as="geometry" />
        </mxCell>
        <mxCell id="IeZsdIZ805MNUzhO2B3x-19" style="edgeStyle=orthogonalEdgeStyle;rounded=0;orthogonalLoop=1;jettySize=auto;html=1;" edge="1" parent="1" source="IeZsdIZ805MNUzhO2B3x-7" target="IeZsdIZ805MNUzhO2B3x-8">
          <mxGeometry relative="1" as="geometry" />
        </mxCell>
        <mxCell id="IeZsdIZ805MNUzhO2B3x-7" value="&lt;div&gt;Split Chunker&amp;nbsp;&amp;nbsp;&lt;/div&gt;&lt;div&gt;&amp;nbsp; &amp;nbsp;(Split into manageable chunks)&lt;/div&gt;" style="rounded=0;whiteSpace=wrap;html=1;flipH=1;" vertex="1" parent="1">
          <mxGeometry x="100.25" y="539" width="249.5" height="76" as="geometry" />
        </mxCell>
        <mxCell id="IeZsdIZ805MNUzhO2B3x-20" style="edgeStyle=orthogonalEdgeStyle;rounded=0;orthogonalLoop=1;jettySize=auto;html=1;" edge="1" parent="1" source="IeZsdIZ805MNUzhO2B3x-8" target="IeZsdIZ805MNUzhO2B3x-9">
          <mxGeometry relative="1" as="geometry" />
        </mxCell>
        <mxCell id="IeZsdIZ805MNUzhO2B3x-8" value="&lt;div&gt;Vectorizer&amp;nbsp;&amp;nbsp;&lt;/div&gt;&lt;div&gt;&lt;span style=&quot;background-color: transparent; color: light-dark(rgb(0, 0, 0), rgb(255, 255, 255));&quot;&gt;(Qwen Embedding v3)&lt;/span&gt;&lt;/div&gt;" style="rounded=0;whiteSpace=wrap;html=1;flipH=1;" vertex="1" parent="1">
          <mxGeometry x="100.25" y="660" width="249.5" height="76" as="geometry" />
        </mxCell>
        <mxCell id="IeZsdIZ805MNUzhO2B3x-34" style="edgeStyle=orthogonalEdgeStyle;rounded=0;orthogonalLoop=1;jettySize=auto;html=1;" edge="1" parent="1" source="IeZsdIZ805MNUzhO2B3x-9" target="IeZsdIZ805MNUzhO2B3x-33">
          <mxGeometry relative="1" as="geometry" />
        </mxCell>
        <mxCell id="IeZsdIZ805MNUzhO2B3x-9" value="&lt;div&gt;Memory Store&amp;nbsp;&amp;nbsp;&lt;/div&gt;&lt;div&gt;&amp;nbsp; &amp;nbsp;(Store vectors in FAISS)&lt;/div&gt;" style="rounded=0;whiteSpace=wrap;html=1;flipH=1;" vertex="1" parent="1">
          <mxGeometry x="105.5" y="780" width="239" height="76" as="geometry" />
        </mxCell>
        <mxCell id="IeZsdIZ805MNUzhO2B3x-22" style="edgeStyle=orthogonalEdgeStyle;rounded=0;orthogonalLoop=1;jettySize=auto;html=1;" edge="1" parent="1" target="IeZsdIZ805MNUzhO2B3x-11">
          <mxGeometry relative="1" as="geometry">
            <mxPoint x="624.8421052631581" y="266" as="sourcePoint" />
          </mxGeometry>
        </mxCell>
        <mxCell id="IeZsdIZ805MNUzhO2B3x-23" style="edgeStyle=orthogonalEdgeStyle;rounded=0;orthogonalLoop=1;jettySize=auto;html=1;" edge="1" parent="1" source="IeZsdIZ805MNUzhO2B3x-11" target="IeZsdIZ805MNUzhO2B3x-12">
          <mxGeometry relative="1" as="geometry" />
        </mxCell>
        <mxCell id="IeZsdIZ805MNUzhO2B3x-11" value="&lt;div&gt;Initial Retriever&amp;nbsp;&amp;nbsp;&lt;/div&gt;&lt;div&gt;&amp;nbsp; &amp;nbsp;(Find top-k relevant chunks from FAISS)&lt;/div&gt;" style="rounded=0;whiteSpace=wrap;html=1;flipH=1;" vertex="1" parent="1">
          <mxGeometry x="500" y="300" width="249.5" height="76" as="geometry" />
        </mxCell>
        <mxCell id="IeZsdIZ805MNUzhO2B3x-24" style="edgeStyle=orthogonalEdgeStyle;rounded=0;orthogonalLoop=1;jettySize=auto;html=1;" edge="1" parent="1" source="IeZsdIZ805MNUzhO2B3x-12" target="IeZsdIZ805MNUzhO2B3x-13">
          <mxGeometry relative="1" as="geometry" />
        </mxCell>
        <mxCell id="IeZsdIZ805MNUzhO2B3x-12" value="&lt;div&gt;Reranker&amp;nbsp;&amp;nbsp;&lt;/div&gt;&lt;div&gt;&amp;nbsp; &amp;nbsp;(Qwen reranker reorders top-k based on relevance)&lt;/div&gt;" style="rounded=0;whiteSpace=wrap;html=1;flipH=1;" vertex="1" parent="1">
          <mxGeometry x="500" y="409" width="249.5" height="76" as="geometry" />
        </mxCell>
        <mxCell id="IeZsdIZ805MNUzhO2B3x-25" style="edgeStyle=orthogonalEdgeStyle;rounded=0;orthogonalLoop=1;jettySize=auto;html=1;" edge="1" parent="1" source="IeZsdIZ805MNUzhO2B3x-13" target="IeZsdIZ805MNUzhO2B3x-14">
          <mxGeometry relative="1" as="geometry" />
        </mxCell>
        <mxCell id="IeZsdIZ805MNUzhO2B3x-13" value="&lt;div&gt;Context Fusion&amp;nbsp;&amp;nbsp;&lt;/div&gt;&lt;div&gt;&amp;nbsp; &amp;nbsp; (Select top-n chunks for generation)&lt;/div&gt;" style="rounded=0;whiteSpace=wrap;html=1;flipH=1;" vertex="1" parent="1">
          <mxGeometry x="500" y="530" width="249.5" height="76" as="geometry" />
        </mxCell>
        <mxCell id="IeZsdIZ805MNUzhO2B3x-26" style="edgeStyle=orthogonalEdgeStyle;rounded=0;orthogonalLoop=1;jettySize=auto;html=1;" edge="1" parent="1" source="IeZsdIZ805MNUzhO2B3x-14" target="IeZsdIZ805MNUzhO2B3x-2">
          <mxGeometry relative="1" as="geometry" />
        </mxCell>
        <mxCell id="IeZsdIZ805MNUzhO2B3x-14" value="&lt;div&gt;User-Facing Response&amp;nbsp;&amp;nbsp;&lt;/div&gt;&lt;div&gt;&lt;span style=&quot;background-color: transparent; color: light-dark(rgb(0, 0, 0), rgb(255, 255, 255));&quot;&gt;(Final answer shown to user)&lt;/span&gt;&lt;/div&gt;" style="rounded=0;whiteSpace=wrap;html=1;flipH=1;" vertex="1" parent="1">
          <mxGeometry x="500" y="640" width="249.5" height="76" as="geometry" />
        </mxCell>
        <mxCell id="IeZsdIZ805MNUzhO2B3x-27" value="" style="endArrow=none;html=1;rounded=1;fillColor=#a20025;strokeColor=light-dark(#6F0000,#FFFFFF);strokeWidth=2;dashed=1;curved=0;startFill=0;" edge="1" parent="1">
          <mxGeometry width="50" height="50" relative="1" as="geometry">
            <mxPoint x="425" y="90" as="sourcePoint" />
            <mxPoint x="425" y="880" as="targetPoint" />
          </mxGeometry>
        </mxCell>
        <mxCell id="IeZsdIZ805MNUzhO2B3x-30" value="Jane" style="text;html=1;align=center;verticalAlign=middle;resizable=0;points=[];autosize=1;strokeColor=none;fillColor=none;fontColor=light-dark(#000000,#FFFFFF);fontStyle=1;fontSize=16;" vertex="1" parent="1">
          <mxGeometry x="45.25" y="180" width="60" height="30" as="geometry" />
        </mxCell>
        <mxCell id="IeZsdIZ805MNUzhO2B3x-32" style="edgeStyle=orthogonalEdgeStyle;rounded=0;orthogonalLoop=1;jettySize=auto;html=1;" edge="1" parent="1" source="IeZsdIZ805MNUzhO2B3x-31">
          <mxGeometry relative="1" as="geometry">
            <mxPoint x="624.8421052631581" y="190" as="targetPoint" />
          </mxGeometry>
        </mxCell>
        <mxCell id="IeZsdIZ805MNUzhO2B3x-31" value="Start" style="rounded=0;whiteSpace=wrap;html=1;flipH=1;" vertex="1" parent="1">
          <mxGeometry x="564.75" y="110" width="120" height="60" as="geometry" />
        </mxCell>
        <mxCell id="IeZsdIZ805MNUzhO2B3x-33" value="Stop" style="rounded=0;whiteSpace=wrap;html=1;flipH=1;" vertex="1" parent="1">
          <mxGeometry x="165" y="880" width="120" height="60" as="geometry" />
        </mxCell>
        <mxCell id="IeZsdIZ805MNUzhO2B3x-35" value="&lt;h1&gt;Data preparation flow&lt;/h1&gt;" style="text;html=1;align=center;verticalAlign=middle;resizable=0;points=[];autosize=1;strokeColor=none;fillColor=none;" vertex="1" parent="1">
          <mxGeometry x="100.25" y="40" width="270" height="70" as="geometry" />
        </mxCell>
        <mxCell id="IeZsdIZ805MNUzhO2B3x-36" value="&lt;h1&gt;User input flow&lt;/h1&gt;" style="text;html=1;align=center;verticalAlign=middle;resizable=0;points=[];autosize=1;strokeColor=none;fillColor=none;" vertex="1" parent="1">
          <mxGeometry x="524.75" y="40" width="200" height="70" as="geometry" />
        </mxCell>
        <mxCell id="IeZsdIZ805MNUzhO2B3x-38" value="&lt;div&gt;User Prompt&amp;nbsp;&amp;nbsp;&lt;/div&gt;&lt;div&gt;&amp;nbsp; &amp;nbsp;(User enters a question)&lt;/div&gt;" style="shape=document;whiteSpace=wrap;html=1;boundedLbl=1;" vertex="1" parent="1">
          <mxGeometry x="499.5" y="196" width="250" height="80" as="geometry" />
        </mxCell>
        <mxCell id="IeZsdIZ805MNUzhO2B3x-39" value="&lt;div&gt;Document Ingestion&amp;nbsp;&amp;nbsp;&lt;/div&gt;&lt;div&gt;&amp;nbsp; &amp;nbsp;(User uploads PDF with text + images)&lt;/div&gt;" style="shape=document;whiteSpace=wrap;html=1;boundedLbl=1;" vertex="1" parent="1">
          <mxGeometry x="100" y="200" width="244.5" height="80" as="geometry" />
        </mxCell>
      </root>
    </mxGraphModel>
  </diagram>
</mxfile>
